<?xml version="1.0" encoding="UTF-8"?>
<svg width="108px" height="64px" viewBox="0 0 108 64" version="1.1" xmlns="http://www.w3.org/2000/svg" xmlns:xlink="http://www.w3.org/1999/xlink">
    <!-- Generator: Sketch 63.1 (92452) - https://sketch.com -->
    <title>4/5-icon</title>
    <desc>Created with Sketch.</desc>
    <g id="4/5-icon" stroke="none" stroke-width="1" fill="none" fill-rule="evenodd">
        <g id="Group-10-Copy" transform="translate(0.000000, 4.000000)">
            <rect id="Rectangle-Copy-5" x="0" y="0" width="108" height="56"></rect>
            <g id="Group-8" transform="translate(5.000000, 0.000000)">
                <path d="M47.1819796,48 C63.6500175,48 77,39.6508474 77,25.4572881 C77,11.2637287 59.8329424,8 48.9886141,8 C38.1442858,8 18.546913,10.4961535 21.2538062,25.4572881 C23.9606993,40.4184227 30.7139416,48 47.1819796,48 Z" id="Oval" fill="#FCF6F1" transform="translate(49.000000, 28.000000) rotate(-18.000000) translate(-49.000000, -28.000000) "></path>
                <path d="M10.2640001,36 L10.2640001,33.072 L12.4960001,33.072 L12.4960001,30.552 L10.2640001,30.552 L10.2640001,27.504 L7.52800005,27.504 L7.52800005,30.552 L4.26400005,30.552 L9.06400005,21.264 L6.06400005,21.264 L0.976000051,30.864 L0.976000051,33.072 L7.52800005,33.072 L7.52800005,36 L10.2640001,36 Z M25.12,36.24 C28.24,36.24 30.376,33.936 30.376,30.648 C30.376,27.336 28.24,25.032 25.12,25.032 C22,25.032 19.864,27.336 19.864,30.648 C19.864,33.936 22,36.24 25.12,36.24 Z M25.12,33.72 C23.632,33.72 22.816,32.424 22.816,30.648 C22.816,28.848 23.632,27.552 25.12,27.552 C26.608,27.552 27.424,28.848 27.424,30.648 C27.424,32.424 26.608,33.72 25.12,33.72 Z M36.52,36.24 C37.768,36.24 38.8,35.688 39.4,35.016 L39.4,36 L42.376,36 L42.376,25.272 L39.376,25.272 L39.376,32.088 C39.16,33.024 38.368,33.576 37.456,33.576 C36.28,33.576 35.728,32.808 35.728,31.68 L35.728,25.272 L32.752,25.272 L32.752,32.28 C32.752,34.656 34.12,36.24 36.52,36.24 Z M49.744,36.216 C50.536,36.216 51.256,36.096 51.664,35.88 L51.664,33.24 C51.328,33.456 50.824,33.6 50.368,33.6 C49.6,33.6 49.144,33.216 49.144,32.376 L49.144,27.672 L51.496,27.672 L51.496,25.272 L49.144,25.272 L49.144,22.368 L46.192,22.368 L46.192,25.272 L44.56,25.272 L44.56,27.672 L46.192,27.672 L46.192,32.76 C46.192,35.136 47.56,36.216 49.744,36.216 Z M64.696,36.24 C67.816,36.24 69.952,33.936 69.952,30.648 C69.952,27.336 67.816,25.032 64.696,25.032 C61.576,25.032 59.44,27.336 59.44,30.648 C59.44,33.936 61.576,36.24 64.696,36.24 Z M64.696,33.72 C63.208,33.72 62.392,32.424 62.392,30.648 C62.392,28.848 63.208,27.552 64.696,27.552 C66.184,27.552 67,28.848 67,30.648 C67,32.424 66.184,33.72 64.696,33.72 Z M76.216,36 L76.216,27.672 L78.448,27.672 L78.448,25.272 L76.216,25.272 L76.216,24.192 C76.216,23.208 76.768,22.704 77.68,22.704 C78.04,22.704 78.424,22.776 78.736,22.992 L78.736,20.472 C78.304,20.28 77.776,20.184 77.08,20.184 C74.8,20.184 73.288,21.576 73.288,24 L73.288,25.272 L71.536,25.272 L71.536,27.672 L73.288,27.672 L73.288,36 L76.216,36 Z M91.24,36.24 C94.24,36.24 96.304,34.2 96.304,31.2 C96.304,28.272 94.408,26.256 91.552,26.256 C90.52,26.256 89.632,26.616 89.176,26.928 L89.176,23.928 L95.32,23.928 L95.32,21.264 L86.68,21.264 L86.68,29.784 L89.08,29.784 C89.56,29.232 90.256,28.8 91.192,28.8 C92.584,28.8 93.424,29.808 93.424,31.2 C93.424,32.616 92.584,33.624 91.24,33.624 C89.824,33.624 89.032,32.736 88.864,31.44 L85.888,31.44 C86.104,34.344 88.144,36.24 91.24,36.24 Z" id="4outof5" fill="#00237E" fill-rule="nonzero"></path>
            </g>
        </g>
    </g>
</svg>