<?xml version="1.0" encoding="UTF-8"?>
<svg width="108px" height="64px" viewBox="0 0 108 64" version="1.1" xmlns="http://www.w3.org/2000/svg" xmlns:xlink="http://www.w3.org/1999/xlink">
    <!-- Generator: Sketch 63.1 (92452) - https://sketch.com -->
    <title>9/10-icon</title>
    <desc>Created with Sketch.</desc>
    <g id="9/10-icon" stroke="none" stroke-width="1" fill="none" fill-rule="evenodd">
        <g id="Group-6-Copy" transform="translate(0.000000, -3.000000)">
            <path d="M58.3226379,67 C73.0812935,67 81.0246501,56.7682139 78.5542834,37.3182966 C76.0839166,17.8683794 60.5067629,-5.16644499 48.465648,4.12471843 C36.424533,13.4158819 23.8832087,26.0178911 29.2957137,41.2998654 C34.7082187,56.5818396 43.5639823,67 58.3226379,67 Z" id="Oval-Copy-4" fill="#FCF9ED" transform="translate(53.500000, 34.500000) rotate(108.000000) translate(-53.500000, -34.500000) "></path>
            <path d="M6.21600006,42.24 C9.74400006,42.24 11.8560001,38.904 11.8560001,34.32 C11.8560001,32.424 11.5680001,30.984 10.8240001,29.688 C9.84000006,27.888 8.20800006,27.024 6.36000006,27.024 C3.07200006,27.024 1.15200006,29.304 1.15200006,32.088 C1.15200006,34.728 2.97600006,36.936 5.95200006,36.936 C7.39200006,36.936 8.56800006,36.288 9.04800006,35.376 L9.04800006,35.592 C9.04800006,37.656 7.94400006,39.72 6.19200006,39.72 C5.16000006,39.72 4.53600006,39.168 4.24800006,38.28 L1.27200006,38.28 C1.80000006,40.752 3.43200006,42.24 6.21600006,42.24 Z M6.33600006,34.56 C4.92000006,34.56 3.91200006,33.552 3.91200006,32.016 C3.91200006,30.552 4.92000006,29.544 6.33600006,29.544 C7.80000006,29.544 8.78400006,30.552 8.78400006,32.016 C8.78400006,33.552 7.80000006,34.56 6.33600006,34.56 Z M24.816,42.24 C27.936,42.24 30.072,39.936 30.072,36.648 C30.072,33.336 27.936,31.032 24.816,31.032 C21.696,31.032 19.56,33.336 19.56,36.648 C19.56,39.936 21.696,42.24 24.816,42.24 Z M24.816,39.72 C23.328,39.72 22.512,38.424 22.512,36.648 C22.512,34.848 23.328,33.552 24.816,33.552 C26.304,33.552 27.12,34.848 27.12,36.648 C27.12,38.424 26.304,39.72 24.816,39.72 Z M36.216,42.24 C37.464,42.24 38.496,41.688 39.096,41.016 L39.096,42 L42.072,42 L42.072,31.272 L39.072,31.272 L39.072,38.088 C38.856,39.024 38.064,39.576 37.152,39.576 C35.976,39.576 35.424,38.808 35.424,37.68 L35.424,31.272 L32.448,31.272 L32.448,38.28 C32.448,40.656 33.816,42.24 36.216,42.24 Z M49.44,42.216 C50.232,42.216 50.952,42.096 51.36,41.88 L51.36,39.24 C51.024,39.456 50.52,39.6 50.064,39.6 C49.296,39.6 48.84,39.216 48.84,38.376 L48.84,33.672 L51.192,33.672 L51.192,31.272 L48.84,31.272 L48.84,28.368 L45.888,28.368 L45.888,31.272 L44.256,31.272 L44.256,33.672 L45.888,33.672 L45.888,38.76 C45.888,41.136 47.256,42.216 49.44,42.216 Z M64.392,42.24 C67.512,42.24 69.648,39.936 69.648,36.648 C69.648,33.336 67.512,31.032 64.392,31.032 C61.272,31.032 59.136,33.336 59.136,36.648 C59.136,39.936 61.272,42.24 64.392,42.24 Z M64.392,39.72 C62.904,39.72 62.088,38.424 62.088,36.648 C62.088,34.848 62.904,33.552 64.392,33.552 C65.88,33.552 66.696,34.848 66.696,36.648 C66.696,38.424 65.88,39.72 64.392,39.72 Z M75.912,42 L75.912,33.672 L78.144,33.672 L78.144,31.272 L75.912,31.272 L75.912,30.192 C75.912,29.208 76.464,28.704 77.376,28.704 C77.736,28.704 78.12,28.776 78.432,28.992 L78.432,26.472 C78,26.28 77.472,26.184 76.776,26.184 C74.496,26.184 72.984,27.576 72.984,30 L72.984,31.272 L71.232,31.272 L71.232,33.672 L72.984,33.672 L72.984,42 L75.912,42 Z M91.8,42 L91.8,27.264 L89.856,27.264 L85.368,29.472 L85.368,32.472 L88.8,30.768 L88.8,42 L91.8,42 Z M100.416,42.24 C103.872,42.24 106.224,39.12 106.224,34.632 C106.224,30.144 103.872,27.024 100.416,27.024 C96.96,27.024 94.608,30.144 94.608,34.632 C94.608,39.12 96.96,42.24 100.416,42.24 Z M100.416,39.504 C98.424,39.504 97.608,37.368 97.608,34.632 C97.608,31.896 98.424,29.76 100.416,29.76 C102.384,29.76 103.224,31.896 103.224,34.632 C103.224,37.368 102.384,39.504 100.416,39.504 Z" id="9outof10" fill="#00237E" fill-rule="nonzero"></path>
        </g>
    </g>
</svg>