<?xml version="1.0" encoding="UTF-8"?>
<svg width="108px" height="64px" viewBox="0 0 108 64" version="1.1" xmlns="http://www.w3.org/2000/svg" xmlns:xlink="http://www.w3.org/1999/xlink">
    <!-- Generator: Sketch 63.1 (92452) - https://sketch.com -->
    <title>google-icon</title>
    <desc>Created with Sketch.</desc>
    <defs>
        <polygon id="path-1" points="8.09210526 12.1381579 3.33568513 14.6387559 4.24408054 9.34240429 0.396055822 5.59150722 5.7138952 4.81877992 8.09210526 0 10.4703153 4.81877992 15.7881547 5.59150722 11.94013 9.34240429 12.8485254 14.6387559"></polygon>
    </defs>
    <g id="google-icon" stroke="none" stroke-width="1" fill="none" fill-rule="evenodd">
        <g id="Group-9-Copy" transform="translate(0.000000, -4.000000)">
            <rect id="Rectangle" x="0" y="8" width="108" height="56"></rect>
            <g id="Group-7" transform="translate(8.000000, 0.000000)">
                <path d="M58.6231129,67 C75.6145763,67 75.3844204,50.4833168 72.5403167,30.3016089 C69.696213,10.119901 64.1053485,5 46.8347768,5 C29.5642051,5 14.1818766,26.7930549 20.4132288,42.6500036 C26.644581,58.5069524 41.6316495,67 58.6231129,67 Z" id="Oval-Copy" fill="#EBF5FB" transform="translate(46.500000, 36.000000) rotate(-253.000000) translate(-46.500000, -36.000000) "></path>
                <g id="Group-4" transform="translate(0.000000, 39.815789)">
                    <polygon id="Star" fill="#00237E" points="8.09210526 12.1381579 3.33568513 14.6387559 4.24408054 9.34240429 0.396055822 5.59150722 5.7138952 4.81877992 8.09210526 0 10.4703153 4.81877992 15.7881547 5.59150722 11.94013 9.34240429 12.8485254 14.6387559"></polygon>
                    <polygon id="Star-Copy" fill="#00237E" points="27.1323529 12.1381579 22.3759328 14.6387559 23.2843282 9.34240429 19.4363035 5.59150722 24.7541429 4.81877992 27.1323529 0 29.510563 4.81877992 34.8284024 5.59150722 30.9803777 9.34240429 31.8887731 14.6387559"></polygon>
                    <polygon id="Star-Copy-2" fill="#00237E" points="46.1726006 12.1381579 41.4161805 14.6387559 42.3245759 9.34240429 38.4765512 5.59150722 43.7943906 4.81877992 46.1726006 0 48.5508107 4.81877992 53.8686501 5.59150722 50.0206253 9.34240429 50.9290208 14.6387559"></polygon>
                    <polygon id="Star-Copy-3" fill="#00237E" points="65.2128483 12.1381579 60.4564282 14.6387559 61.3648236 9.34240429 57.5167989 5.59150722 62.8346382 4.81877992 65.2128483 0 67.5910584 4.81877992 72.9088977 5.59150722 69.060873 9.34240429 69.9692684 14.6387559"></polygon>
                    <polygon id="Star-Copy-4" fill="#00237E" points="84.253096 12.1381579 79.4966758 14.6387559 80.4050713 9.34240429 76.5570465 5.59150722 81.8748859 4.81877992 84.253096 0 86.631306 4.81877992 91.9491454 5.59150722 88.1011207 9.34240429 89.0095161 14.6387559"></polygon>
                    <g id="Rectangle" transform="translate(76.160991, 0.000000)">
                        <mask id="mask-2" fill="white">
                            <use xlink:href="#path-1"></use>
                        </mask>
                        <use id="Mask" fill="#00237E" xlink:href="#path-1"></use>
                        <rect fill="#B3BED9" mask="url(#mask-2)" x="11.4241486" y="-2.85603715" width="12.376161" height="20.9442724"></rect>
                    </g>
                </g>
                <g id="google" transform="translate(12.947368, 15.000000)" fill="#00237E" fill-rule="nonzero">
                    <g id="Group" transform="translate(33.082011, 10.789474) scale(-1, 1) rotate(-180.000000) translate(-33.082011, -10.789474) translate(0.114174, 0.000000)">
                        <path d="M7.57348325,21.5377858 C5.05414086,21.2290741 2.82846415,19.8758879 1.43741621,17.8178099 C0.690371942,16.711593 0.257601471,15.5590693 0.0772804413,14.2213187 C-0.0206081177,13.4598298 -0.0206081177,12.9607459 0.0772804413,12.2146927 C0.499746854,8.97836508 2.75633574,6.28742816 5.90422572,5.25838918 C6.78007072,4.97025826 7.49620281,4.86220917 8.55236884,4.85706398 C10.3813393,4.85706398 11.7672352,5.24809879 13.137675,6.15365309 C13.6683341,6.50352634 14.533875,7.32675752 14.9357333,7.8567126 C15.4973045,8.60276586 15.940379,9.61636925 16.1876764,10.7225862 C16.285565,11.1547825 16.3010211,11.3914615 16.3010211,12.4102101 C16.3061731,13.0636498 16.285565,13.6810732 16.2649569,13.7891223 L16.2237406,13.9794945 L12.3906308,13.9794945 L8.55236884,13.9794945 L8.55236884,12.8218257 L8.55236884,11.6641568 L11.2571843,11.6641568 L13.9619997,11.6641568 L13.9619997,11.5149462 C13.9619997,11.1959441 13.6992462,10.3366965 13.4416448,9.81188666 C13.1994994,9.32309314 13.1222189,9.22018924 12.6276241,8.73139573 C11.8599717,7.96990688 11.215968,7.61488844 10.0516094,7.30103155 C9.60853487,7.18269207 9.45912601,7.17240168 8.62964928,7.16725648 C7.93927734,7.16725648 7.60439542,7.18783726 7.32618583,7.25472479 C6.07939472,7.54285571 5.0953571,8.07281078 4.28648848,8.89089677 C3.76613351,9.42599704 3.49307595,9.80159627 3.16849809,10.455036 C2.66359921,11.4737846 2.49358224,12.302161 2.5399505,13.5112818 C2.57601471,14.494014 2.74603168,15.152599 3.18395418,16.0118465 C4.20405601,18.0287629 6.24941169,19.2841904 8.52145666,19.2790453 C9.9640249,19.2739001 11.0511031,18.8983008 12.266982,17.9824561 L12.6842964,17.6685993 L12.7976411,17.7920839 C12.8646175,17.8589715 13.2098034,18.2242803 13.5755975,18.5998795 L14.2350573,19.2841904 L14.0598883,19.4642723 C13.8228949,19.7112416 13.0913068,20.2463419 12.6379282,20.5087468 C11.8908839,20.9409432 10.855326,21.3113972 9.99493707,21.4657531 C9.41275775,21.568657 8.11444634,21.6098185 7.57348325,21.5377858 Z" id="Path"></path>
                        <path d="M52.6022204,13.1048114 L52.6022204,5.18121125 L53.8026432,5.19150164 L54.9979141,5.20693723 L54.992762,5.32527671 C54.992762,5.38701905 54.98761,8.94749391 54.982458,13.2334413 L54.9721539,21.0284115 L53.7871871,21.0284115 L52.6022204,21.0284115 L52.6022204,13.1048114 Z" id="Path"></path>
                        <path d="M21.720956,15.5745049 C20.9533037,15.4510203 20.2114114,15.1834701 19.5931679,14.8027257 C19.093421,14.4991592 18.4236572,13.8817358 18.1093834,13.4392491 C17.7796535,12.9813267 17.4344676,12.2301283 17.2747546,11.6384308 C17.1511059,11.1753633 17.1408019,11.036443 17.1408019,10.2235022 C17.1408019,9.40541626 17.1511059,9.27678639 17.2799067,8.81371885 C17.6353967,7.51198454 18.3772889,6.47780037 19.4849753,5.74718269 C20.3968845,5.15034008 21.1387767,4.92395151 22.3082874,4.88793515 C23.5293184,4.84677359 24.4000113,5.05258138 25.3016165,5.59282685 C26.5381035,6.3388801 27.3727323,7.42966142 27.7488305,8.78284768 C27.9291515,9.44143262 27.9755197,10.5527947 27.851871,11.2062345 C27.3675803,13.7839771 25.3325287,15.5179078 22.6946896,15.6002309 C22.3288955,15.6105213 21.885821,15.6002309 21.720956,15.5745049 Z M23.3438453,13.3826519 C24.1166497,13.1562633 24.8224777,12.5594207 25.1882718,11.8133675 C25.4716335,11.2319604 25.569522,10.7586025 25.5386098,10.0691464 C25.4716335,8.63363703 24.683373,7.54285571 23.3902136,7.10551414 C22.9935073,6.97173908 22.0352298,6.97173908 21.6385236,7.10551414 C21.1181686,7.28045077 20.845111,7.4553874 20.4432527,7.8567126 C19.8095531,8.48442637 19.4798232,9.29736717 19.4746712,10.2132119 C19.4746712,11.3400095 20.0104823,12.4256457 20.839959,12.9761815 C21.190297,13.2077153 21.6488276,13.3980875 22.0146217,13.464975 C22.3598077,13.5267174 22.9883553,13.4855558 23.3438453,13.3826519 Z" id="Shape"></path>
                        <path d="M33.5500156,15.5745049 C31.6746769,15.337826 30.0208754,14.0823984 29.3098954,12.3639033 C29.0007736,11.6127049 28.887429,10.9644103 28.9183411,10.0691464 C28.9492533,9.14815651 29.0986622,8.52558793 29.4696083,7.77953467 C30.2115005,6.28742816 31.5870924,5.26353437 33.266654,4.94453229 C33.9055056,4.82619281 35.1522967,4.86735437 35.729324,5.02685541 C38.0580413,5.65971438 39.5984981,7.58401727 39.7066907,9.9713877 C39.7839712,11.6281405 39.2584642,12.9710363 38.0992576,14.1081244 C37.3831255,14.8130161 36.4866724,15.2915192 35.4923307,15.497327 C35.023496,15.5950857 34.0394584,15.6362473 33.5500156,15.5745049 Z M35.2501853,13.3414903 C36.5124325,12.8990036 37.3522133,11.6590116 37.3522133,10.2389378 C37.3522133,9.6678212 37.2337166,9.18931807 36.9709631,8.64907261 C36.780338,8.26832819 36.6669934,8.11397234 36.3527196,7.81555104 C35.7499321,7.24443441 35.1007764,6.98202947 34.2970598,6.98202947 C33.4675831,6.98202947 32.8596436,7.24443441 32.220792,7.88243857 C31.8962141,8.20144065 31.7622614,8.38152248 31.6180045,8.67994378 C30.9843049,10.0228396 31.2316023,11.6384308 32.220792,12.6160179 C33.0502687,13.4341039 34.1940193,13.7067992 35.2501853,13.3414903 Z" id="Shape"></path>
                        <path d="M45.013281,15.548779 C42.9318612,15.152599 41.2419955,13.4598298 40.798921,11.3297191 C40.5979918,10.3624225 40.6958804,9.1635921 41.0565224,8.24260221 C41.5356612,7.00261025 42.4733305,5.97357127 43.6634493,5.38701905 C45.3687711,4.53806189 47.275022,4.72328891 48.506357,5.85523178 L48.7330463,6.06618478 L48.7691105,5.92211932 C48.8309348,5.69058555 48.7485024,4.61523982 48.6351577,4.18818864 C48.3724042,3.14371408 47.7180965,2.47998394 46.7031467,2.22272419 C46.3476567,2.13011068 45.6624367,2.11982029 45.2760345,2.20214341 C44.5753585,2.34620887 43.8386183,2.90703511 43.3852397,3.64279798 L43.1430944,4.03897799 L42.2157291,3.65823357 C41.7108302,3.44728058 41.2522996,3.25690837 41.2007793,3.23632759 C41.1131948,3.20031122 41.1234988,3.15914966 41.334732,2.75267927 C41.9735837,1.5126873 43.0709659,0.612278192 44.4465578,0.216098185 C46.2858323,-0.319002083 48.3775563,0.174936626 49.5934352,1.43550937 C50.2889592,2.15069146 50.7062735,3.03566499 50.9278108,4.25507617 C51.0102433,4.69241774 51.0205473,5.28411515 51.0360034,10.0074041 L51.0514595,15.2657932 L49.918013,15.2657932 L48.7897186,15.2657932 L48.7897186,14.8541776 C48.7897186,14.6277891 48.7794145,14.4425621 48.7639585,14.4425621 C48.7485024,14.4425621 48.5578773,14.5866275 48.33634,14.7615641 C47.8932655,15.1114374 47.3677585,15.3789875 46.8731637,15.497327 C46.3940249,15.6156665 45.4975718,15.6413925 45.013281,15.548779 Z M46.94014,13.3414903 C47.6665762,13.0893758 48.1869312,12.6108727 48.5578773,11.8442386 C49.0885363,10.7586025 49.0627762,9.54948172 48.4909009,8.4535552 C47.6202079,6.78651206 45.3842272,6.47780037 44.0189394,7.83613182 C43.3903918,8.4587004 43.0709659,9.25106041 43.0709659,10.2029215 C43.0709659,11.854529 44.1013718,13.1871345 45.5954604,13.464975 C45.9406463,13.5318626 46.5588899,13.4752654 46.94014,13.3414903 Z" id="Shape"></path>
                        <path d="M60.2787442,15.5642145 C60.0932712,15.5384886 59.717173,15.4407299 59.4389634,15.3481164 C57.6975775,14.7512737 56.4662424,13.2437316 56.1210565,11.2782672 C56.0077118,10.6299726 56.0540801,9.43628743 56.208641,8.83429963 C56.6414114,7.18783726 57.7284896,5.88610295 59.1710579,5.28926035 C60.9794202,4.5329167 63.045384,4.76959566 64.5446246,5.90153854 C64.9361788,6.19481465 65.6832231,6.93572271 65.7914157,7.14153051 C65.837784,7.22385363 65.7398954,7.30617674 64.9516349,7.83098662 C64.4570401,8.1551339 64.0345737,8.42268403 64.0139655,8.42268403 C63.9933574,8.42268403 63.926381,8.3609417 63.8697087,8.28376377 C63.4575464,7.7538087 62.9320394,7.3524835 62.3653161,7.13124012 C62.0922586,7.02833622 61.9686099,7.01290063 61.3349102,7.01290063 C60.7269708,7.01290063 60.5672579,7.03348141 60.3199604,7.12609492 C59.7326291,7.34219311 59.1813619,7.80526065 58.8619361,8.35065131 C58.7846557,8.47928118 58.7331354,8.59247547 58.7434394,8.60276586 C58.7485915,8.60791105 60.3766328,9.28193158 62.34986,10.1000176 L65.9356725,11.5766885 L65.8326319,11.8648194 C64.8640504,14.5300304 62.7826305,15.919233 60.2787442,15.5642145 Z M61.9376977,13.4135231 C62.3550121,13.2848932 62.7723265,12.9967623 62.9990157,12.6777602 C63.0969043,12.5439851 63.1690327,12.4256457 63.1587287,12.4153553 C63.0917523,12.3639033 58.4137096,10.42931 58.3518852,10.42931 C58.2849088,10.42931 58.3261251,10.8975228 58.4240136,11.273122 C58.5682704,11.8390934 58.8001118,12.250709 59.2225782,12.672615 C59.7841494,13.2437316 60.3972409,13.5112818 61.1597412,13.5112818 C61.468863,13.516427 61.7110084,13.4855558 61.9376977,13.4135231 Z" id="Shape"></path>
                    </g>
                </g>
            </g>
        </g>
    </g>
</svg>