<svg id="Layer_1" data-name="Layer 1" xmlns="http://www.w3.org/2000/svg" viewBox="0 0 88 88"><defs><style>.cls-1{fill:#d7ecf7;}.cls-2{fill:#1e306e;}.cls-3{fill:none;}</style></defs><title>Untitled-2</title><rect class="cls-1" x="58.35" y="37.42" width="20.55" height="20.55" rx="2.61"/><path class="cls-2" d="M41.62,28.48c-8,4-12.89,3.71-12.94,3.7A.92.92,0,0,0,28.52,34s.22,0,.54,0c1.55,0,6.34-.34,13.39-3.91a.92.92,0,0,0-.83-1.64Z"/><path class="cls-2" d="M49.05,38.05A38.23,38.23,0,0,0,49,31.31c0-.14-1-14.21-15.9-14.21H29.62c-14.92,0-15.9,14.07-15.91,14.2a45.17,45.17,0,0,0-.12,6.48,6.93,6.93,0,0,0,.17,12.63,7.44,7.44,0,0,0,3.17,7C18.24,65,24.1,70.76,31.11,70.76c8,0,14.46-7.46,14.46-16.68V51.19a7.41,7.41,0,0,0,7-7.14A7.07,7.07,0,0,0,49.05,38.05Zm-37.61,6a5.55,5.55,0,0,1,5-5.28V49.33A5.55,5.55,0,0,1,11.44,44.05Zm4.11,7a9.35,9.35,0,0,0,1.08.17l0,2.93c0,.16,0,.32,0,.48A5.44,5.44,0,0,1,15.55,51ZM44.72,31.74a.92.92,0,0,0-.92.92l-.06,21.47c0,8.16-5.67,14.8-12.63,14.8-5.64,0-10.42-4.35-12-10.37a9.58,9.58,0,0,0,3.66.77,8.24,8.24,0,0,0,2.66-.44,4.26,4.26,0,0,0,1.5.27c1.83,0,3.31-1.07,3.31-2.4s-1.48-2.4-3.31-2.4-3.31,1.07-3.31,2.4a1.8,1.8,0,0,0,.14.65,7.58,7.58,0,0,1-4.78-.94l-.3-.18a17.84,17.84,0,0,1-.16-2.22l-.06-11.72C19,37,19.85,34.79,22.84,31.28c2.83-3.32,5.78-3,5.91-3,7.37.87,10.83-1.87,11-2a.92.92,0,1,0-1.15-1.43S35.49,27.19,29,26.42c-.16,0-4-.44-7.51,3.67a17.21,17.21,0,0,0-3.92,6.82,1.25,1.25,0,0,0-.19,0,8.5,8.5,0,0,0-2,.24c0-1.25,0-3.64.17-5.7,0-.52.87-12.49,14.08-12.49h3.44c13.16,0,14,12,14.07,12.49.14,2.14.22,4.63.17,5.84a8.49,8.49,0,0,0-1.68-.35V32.66A.92.92,0,0,0,44.72,31.74Zm1,17.59V38.77a5.55,5.55,0,0,1,5,5.28A5.55,5.55,0,0,1,45.74,49.33Z"/><path class="cls-2" d="M24.86,42.75a2,2,0,1,0,2,2A2,2,0,0,0,24.86,42.75Z"/><path class="cls-2" d="M37.36,42.75a2,2,0,1,0,2,2A2,2,0,0,0,37.36,42.75Z"/><path class="cls-2" d="M72.09,34.15H57.66a3.12,3.12,0,0,0-3.12,3.11v12A3.76,3.76,0,0,1,51.68,53a.9.9,0,0,0-.66.9.89.89,0,0,0,.7.87,11.39,11.39,0,0,0,2.43.26,6.55,6.55,0,0,0,4.77-1.67.91.91,0,0,0-1.31-1.27,4.27,4.27,0,0,1-2.72,1.08,5.56,5.56,0,0,0,1.49-3.93v-12A1.28,1.28,0,0,1,57.66,36H72.09a1.28,1.28,0,0,1,1.28,1.28V51.7A1.27,1.27,0,0,1,72.09,53H61.3a.92.92,0,0,0,0,1.84H72.09A3.11,3.11,0,0,0,75.2,51.7V37.26A3.11,3.11,0,0,0,72.09,34.15Z"/><path class="cls-2" d="M49.05,53.13a.82.82,0,1,0,.83.82A.82.82,0,0,0,49.05,53.13Z"/><path class="cls-2" d="M65.12,47.22a.69.69,0,0,0-.63-.41H62.14a.68.68,0,0,0-.69.68.69.69,0,0,0,.69.69h.73l-1.22,1.27a.68.68,0,0,0-.14.75.7.7,0,0,0,.63.42h2.35a.69.69,0,0,0,0-1.38h-.73L65,48A.69.69,0,0,0,65.12,47.22Z"/><path class="cls-2" d="M70.68,43.88a.68.68,0,0,0-.63-.41H67.2a.68.68,0,0,0-.69.68.69.69,0,0,0,.69.69h1.23l-1.73,1.8a.69.69,0,0,0,.5,1.16h2.85a.69.69,0,0,0,.69-.69.68.68,0,0,0-.69-.68H68.82l1.73-1.8A.69.69,0,0,0,70.68,43.88Z"/><path class="cls-2" d="M64.35,43.61a.69.69,0,0,0,0-1.38h-2l2.54-2.64a.68.68,0,0,0,.14-.74.69.69,0,0,0-.64-.42H60.69a.68.68,0,0,0-.69.68.69.69,0,0,0,.69.69h2.05L60.2,42.44a.68.68,0,0,0-.14.75.69.69,0,0,0,.63.42Z"/><rect class="cls-3" x="0.25" y="-0.07" width="88" height="88"/></svg>