<?xml version="1.0" encoding="utf-8"?>
<!-- Generator: Adobe Illustrator 24.1.0, SVG Export Plug-In . SVG Version: 6.00 Build 0)  -->
<svg version="1.1" id="Layer_1" xmlns="http://www.w3.org/2000/svg" xmlns:xlink="http://www.w3.org/1999/xlink" x="0px" y="0px"
	 viewBox="0 0 88 88" style="enable-background:new 0 0 88 88;" xml:space="preserve">
<style type="text/css">
	.st0{fill:#D7ECF7;}
	.st1{fill:#1E306E;}
	.st2{fill:none;}
</style>
<path class="st0" d="M59.8,56.4c-2.6,0.3-5.1,1.4-7,3.2c-3,2.9-4.6,6.9-4.6,11l-3.8-9.5l1.3-3.5c0.8-0.6,1.6-1.6,2.4-1.8
	c1.3-0.3,3.1,1.1,4.3,0.6s1.5-2.9,2.6-3.8c0.8-0.5,2.1-0.4,3.1-0.7L59.8,56.4z"/>
<path class="st0" d="M43.9,51.7c-7.9,0-14.3-6.4-14.3-14.3c0-7.9,6.4-14.3,14.3-14.3c7.9,0,14.3,6.4,14.3,14.3
	C58.2,45.3,51.8,51.7,43.9,51.7z"/>
<path class="st1" d="M64.6,40c0.7-0.7,1.2-1.7,1.3-2.7c-0.1-1-0.6-2-1.3-2.7c-0.3-0.4-0.6-0.8-0.8-1.2c0-0.5,0.1-1.1,0.3-1.6
	c0.4-0.9,0.5-1.9,0.2-2.9c-0.5-0.9-1.3-1.6-2.2-1.9c-0.5-0.2-0.9-0.5-1.3-0.9c-0.2-0.5-0.3-1-0.3-1.6c0-1-0.4-2-1-2.8
	c-0.8-0.6-1.8-0.9-2.8-0.9c-0.5,0-1.1-0.1-1.6-0.4c-0.4-0.4-0.7-0.8-0.9-1.3c-0.4-0.9-1.1-1.7-2-2.2c-0.9-0.3-1.9-0.2-2.8,0.2
	c-0.5,0.2-1.1,0.3-1.6,0.3c-0.5-0.2-0.9-0.5-1.3-0.8C45.9,16,45,15.6,44,15.4c-1,0.1-1.9,0.6-2.6,1.3c-0.4,0.4-0.8,0.7-1.3,0.9
	c-0.5,0-1.1-0.1-1.6-0.3c-0.9-0.4-1.9-0.5-2.9-0.2c-0.9,0.5-1.6,1.3-1.9,2.2c-0.2,0.5-0.5,0.9-0.9,1.3c-0.5,0.2-1,0.3-1.6,0.3
	c-1,0-2,0.4-2.8,1c-0.6,0.8-0.9,1.8-0.9,2.8c0,0.5-0.1,1.1-0.3,1.6c-0.4,0.4-0.8,0.7-1.3,0.9c-0.9,0.4-1.7,1-2.3,1.9
	c-0.3,0.9-0.2,1.9,0.2,2.8c0.2,0.5,0.3,1.1,0.3,1.6c-0.2,0.5-0.5,0.9-0.8,1.2c-0.7,0.7-1.2,1.6-1.4,2.7c0.1,1,0.6,1.9,1.3,2.6
	c0.4,0.4,0.7,0.8,0.8,1.3c0,0.5-0.1,1.1-0.3,1.6c-0.4,0.9-0.5,1.9-0.2,2.8c0.5,0.9,1.3,1.6,2.2,1.9c0.5,0.2,0.9,0.5,1.3,0.9
	c0.2,0.5,0.3,1,0.3,1.6c0,1,0.4,2,1,2.8c0.3,0.3,0.6,0.5,1,0.6l-4.8,11.6l0.2,1.5l1.5,0.5l7.9-1.8l3.8,6.5l1,0.6h0.2
	c0.6,0,1.2-0.4,1.4-1l3.5-8.4l3.5,8.4c0.2,0.6,0.8,1,1.5,1h0.3l0.8-0.5l4-6.6l7.8,1.7c0.6,0.1,1.2-0.1,1.5-0.6l0.3-1.3l-4.8-11.8
	c0.2-0.1,0.4-0.3,0.6-0.4c0.6-0.8,0.9-1.8,0.9-2.7c0-0.5,0.1-1.1,0.3-1.6c0.3-0.4,0.8-0.7,1.2-0.9c0.9-0.4,1.7-1.1,2.2-2
	c0.3-0.9,0.2-1.9-0.2-2.8c-0.2-0.5-0.3-1.1-0.3-1.6C63.9,40.8,64.2,40.4,64.6,40z M39.3,70.3l-4.2-7l-8.5,1.9l4.6-11.3
	c0.5,0,1,0.1,1.5,0.3c0.4,0.4,0.7,0.8,0.9,1.3c0.4,0.9,1.1,1.7,1.9,2.2c0.9,0.3,1.9,0.2,2.8-0.2c0.5-0.2,1.1-0.3,1.6-0.3
	c0.5,0.2,0.9,0.5,1.2,0.8c0.7,0.7,1.5,1.1,2.4,1.3L39.3,70.3z M61.8,65.1l-8.5-1.9l-4.2,7l-4-9.7l0.9-2.1c0.2-0.1,0.4-0.3,0.5-0.4
	c0.4-0.4,0.8-0.7,1.3-0.8c0.5,0,1.1,0.1,1.6,0.3c0.9,0.4,1.9,0.5,2.8,0.2c0.9-0.5,1.6-1.3,2-2.2c0.2-0.5,0.5-0.9,0.9-1.3
	c0.5-0.2,1-0.3,1.6-0.3l0.5,0L61.8,65.1z M63.2,38.9c-0.6,0.6-1,1.3-1.2,2.1c-0.1,0.8,0,1.7,0.3,2.5c0.2,0.5,0.3,1.1,0.3,1.6
	c-0.2,0.4-0.8,0.7-1.4,1c-0.7,0.3-1.4,0.8-1.9,1.5c-0.4,0.7-0.7,1.6-0.7,2.4c0,0.6-0.1,1.1-0.4,1.6c-0.5,0.3-1.1,0.4-1.7,0.4
	c-0.8,0-1.7,0.2-2.4,0.6c-0.6,0.5-1.2,1.2-1.5,2c-0.3,0.6-0.6,1.2-1,1.3c-0.6,0-1.1-0.1-1.7-0.3c-0.8-0.3-1.6-0.4-2.5-0.3
	c-0.8,0.2-1.5,0.7-2.1,1.2C45,57,44.5,57.3,44,57.5c-0.4,0-1-0.5-1.5-0.9c-0.6-0.6-1.3-1-2.1-1.2c-0.2,0-0.4,0-0.6,0
	c-0.7,0-1.3,0.2-1.9,0.4C37.4,56,36.8,56,36.3,56c-0.4-0.2-0.7-0.8-1-1.4c-0.3-0.8-0.8-1.4-1.5-1.9c-0.7-0.4-1.6-0.7-2.4-0.7
	c-0.6,0-1.1-0.1-1.6-0.4c-0.3-0.5-0.4-1.1-0.4-1.7c0-0.8-0.2-1.7-0.6-2.4c-0.5-0.7-1.2-1.2-2-1.5c-0.6-0.3-1.2-0.6-1.4-1
	c-0.1-0.6,0-1.1,0.3-1.7c0.3-0.8,0.5-1.6,0.4-2.5c-0.2-0.8-0.6-1.5-1.2-2.1c-0.4-0.5-0.9-1.1-0.9-1.5s0.5-1,0.9-1.5
	c0.6-0.6,1-1.3,1.2-2.1c0.1-0.8,0-1.7-0.3-2.5c-0.2-0.5-0.3-1.1-0.2-1.6c0.2-0.4,0.8-0.7,1.4-1c0.7-0.3,1.4-0.9,1.9-1.5
	c0.4-0.7,0.6-1.6,0.6-2.4c0-0.6,0.1-1.1,0.4-1.6c0.5-0.3,1.1-0.4,1.7-0.4c0.8,0,1.6-0.2,2.4-0.6c0.7-0.5,1.2-1.2,1.5-2
	c0.3-0.6,0.6-1.2,1-1.4c0.6-0.1,1.1,0,1.7,0.2c0.8,0.3,1.6,0.4,2.5,0.3c0.8-0.2,1.5-0.6,2.1-1.2c0.5-0.4,1.1-0.9,1.5-0.9
	s1,0.5,1.5,0.9c0.6,0.6,1.3,1,2.1,1.2c0.8,0.1,1.7,0,2.5-0.3c0.5-0.2,1.1-0.3,1.6-0.3c0.4,0.2,0.7,0.8,1,1.4
	c0.3,0.7,0.8,1.4,1.5,1.9c0.7,0.4,1.6,0.6,2.4,0.6c0.6,0,1.1,0.1,1.6,0.4c0.3,0.5,0.4,1.1,0.4,1.7c0,0.8,0.2,1.7,0.6,2.4
	c0.5,0.6,1.2,1.2,2,1.5c0.6,0.3,1.2,0.6,1.3,1c0,0.6,0,1.1-0.3,1.6C62,32.1,61.9,33,62,33.8c0.2,0.8,0.6,1.4,1.2,2
	c0.4,0.4,0.8,0.9,0.9,1.5C64.1,37.8,63.6,38.3,63.2,38.9z"/>
<path class="st1" d="M43.9,22.1c-8.4,0-15.2,6.8-15.2,15.2c0,8.4,6.8,15.2,15.2,15.2c8.4,0,15.2-6.8,15.2-15.2
	C59.1,29,52.3,22.2,43.9,22.1z M43.9,50.8c-7.4,0-13.4-6-13.4-13.4S36.5,24,43.9,24c7.4,0,13.4,6,13.4,13.4
	C57.3,44.8,51.3,50.8,43.9,50.8z"/>
<rect x="0" y="-0.1" class="st2" width="88" height="88"/>
<g>
	<g>
		<rect x="34" y="31.3" class="st1" width="1.8" height="12.4"/>
	</g>
	<g>
		<path class="st1" d="M41.2,30.9c-1.8,0-3.7,1.7-3.7,6.6c0,4.1,1.4,6.5,3.7,6.5c1.4,0,3.7-0.9,3.7-6.7C44.9,32,42.9,30.9,41.2,30.9
			z M41.2,32.7c1.7,0,1.9,3.3,1.9,4.7c0,1.1-0.1,4.8-1.9,4.8c-1.1,0-1.9-1.9-1.9-4.7C39.3,34.6,40.1,32.7,41.2,32.7z"/>
	</g>
	<g>
		<path class="st1" d="M50.3,30.9c-1.8,0-3.7,1.7-3.7,6.6c0,4.1,1.4,6.5,3.7,6.5c1.4,0,3.7-0.9,3.7-6.7C54,32,52,30.9,50.3,30.9z
			 M50.3,42.2c-1.1,0-1.9-1.9-1.9-4.7c0-2.9,0.8-4.8,1.9-4.8c1.7,0,1.9,3.3,1.9,4.7C52.2,38.5,52,42.2,50.3,42.2z"/>
	</g>
</g>
</svg>
