<svg id="Layer_1" data-name="Layer 1" xmlns="http://www.w3.org/2000/svg" viewBox="0 0 88 88"><defs><style>.cls-1,.cls-2{fill:#d7ecf7;}.cls-2{fill-rule:evenodd;}.cls-3{fill:#1e306e;}.cls-4{fill:none;}</style></defs><title>Untitled-2</title><rect class="cls-1" x="19.43" y="30.66" width="39.94" height="6.76"/><path class="cls-2" d="M69,25.55A10.71,10.71,0,0,1,79.74,36.26q0,5.93-10.71,15.22-10.71-9.3-10.71-15.22A10.72,10.72,0,0,1,69,25.55Zm0,6.77a3.38,3.38,0,1,0,3.39,3.38A3.38,3.38,0,0,0,69,32.32Z"/><path class="cls-3" d="M45.72,41l-.39.36c-.15,0-.23,0-.56-.31A4.32,4.32,0,0,0,41.61,40a5.25,5.25,0,0,0-3.8,1.68,6,6,0,0,0,0,7.91,5.25,5.25,0,0,0,3.8,1.68,5.14,5.14,0,0,0,4.5-2.69v-.19l-1.85-1.09v.19a2.86,2.86,0,0,1-2.63,1.61,2.92,2.92,0,0,1-2.21-1,3.84,3.84,0,0,1,0-5,2.89,2.89,0,0,1,2.19-1,2.46,2.46,0,0,1,1.83.63,2.71,2.71,0,0,0,1.79.71,2.47,2.47,0,0,0,2.36-2.1v-.21l-1.87-.36Z"/><path class="cls-3" d="M66.72,50.82a.9.9,0,0,0,.6.23.92.92,0,0,0,.6-.23c7.42-6.44,11-11.65,11-15.91a11.61,11.61,0,0,0-20.8-7.12h-41a.92.92,0,0,0-.92.92v6.76a.92.92,0,0,0,.92.92h2.46V62.74H14.89a.92.92,0,0,0,0,1.84h53a.92.92,0,1,0,0-1.84H63.16V47.54C64.23,48.59,65.41,49.69,66.72,50.82Zm.6-25.7a9.8,9.8,0,0,1,9.79,9.79c0,3.54-3.29,8.25-9.79,14-6.5-5.75-9.8-10.46-9.8-14A9.81,9.81,0,0,1,67.32,25.12ZM18.06,29.63H57a11.46,11.46,0,0,0-1.26,4.93H18.06ZM35.23,62.74V56.69h5.5v6.05Zm7.33,0V56.69h5.5v6.05Zm7.33,0v-7a.92.92,0,0,0-.92-.92H34.32a.92.92,0,0,0-.92.92v7H21.45V36.39H55.83c.5,2.7,2.31,5.76,5.5,9.24V62.74Z"/><path class="cls-3" d="M67.32,38.65a4.3,4.3,0,1,0-4.3-4.3A4.31,4.31,0,0,0,67.32,38.65Zm0-6.77a2.47,2.47,0,1,1-2.47,2.47A2.47,2.47,0,0,1,67.32,31.88Z"/><rect class="cls-4" x="0.11" y="-0.07" width="88" height="88"/></svg>