<?xml version="1.0" encoding="UTF-8"?>
<svg width="184px" height="61px" viewBox="0 0 184 61" version="1.1" xmlns="http://www.w3.org/2000/svg" xmlns:xlink="http://www.w3.org/1999/xlink">
    <!-- Generator: Sketch 63.1 (92452) - https://sketch.com -->
    <title>popMech_logo_03</title>
    <desc>Created with Sketch.</desc>
    <g id="popMech_logo_03" stroke="none" stroke-width="1" fill="none" fill-rule="evenodd">
        <g id="popular-mechanics-vector-logo" transform="translate(0.000000, 9.000000)" fill="#1E306E" fill-rule="nonzero">
            <path d="M84.6323363,17.4482759 C84.6323363,18.7531034 84.3883512,18.8744828 83.0159349,19.3903448 L83.0159349,20.9986207 L100.338878,20.9986207 L100.338878,13.9889655 L98.6309822,13.9889655 L97.8380306,16.3255172 C97.3195622,17.8731034 96.6791013,18.7227586 94.9102092,18.7227586 L93.0193246,18.7227586 C91.5249158,18.7227586 90.7929604,18.2675862 90.7929604,16.72 L90.7929604,4.24827586 C90.7929604,2.94344828 91.2504325,2.88275862 92.683845,2.3062069 L92.683845,0.728275862 L83.0769312,0.728275862 L83.0769312,2.3062069 C84.4493475,2.82206897 84.6933326,2.94344828 84.6933326,4.24827586 L84.6933326,17.4482759" id="Fill-1"></path>
            <path d="M67.9803523,4.24827586 C67.9803523,2.94344828 68.4378244,2.88275862 69.8712369,2.3062069 L69.8712369,0.728275862 L60.2643231,0.728275862 L60.2643231,2.3062069 C61.6367393,2.82206897 61.8807245,2.94344828 61.8807245,4.24827586 L61.8807245,13.4731034 C61.8807245,18.2372414 64.9610365,21.4234483 71.3351476,21.4234483 C76.7333182,21.4234483 80.0271173,18.5710345 80.0271173,14.2013793 L80.0271173,4.24827586 C80.0271173,2.94344828 80.2711024,2.82206897 81.6435187,2.3062069 L81.6435187,0.728275862 L75.7573778,0.728275862 L75.7573778,2.3062069 C77.1297941,2.82206897 77.3737792,2.94344828 77.3737792,4.24827586 L77.3737792,13.6855172 C77.3737792,16.6593103 75.7573778,18.48 72.6160695,18.48 C69.8712369,18.48 68.0413486,16.9324138 68.0413486,13.9889655 L68.0413486,4.24827586" id="Fill-2"></path>
            <path d="M30.3456485,19.1475862 C27.9362955,19.1475862 26.8078644,16.9324138 26.8078644,10.8331034 C26.8078644,4.7337931 27.9667937,2.51862069 30.3456485,2.51862069 C32.7245034,2.51862069 33.8834327,4.7337931 33.8834327,10.8331034 C33.9139308,16.9324138 32.7550015,19.1475862 30.3456485,19.1475862 L30.3456485,19.1475862 Z M30.3456485,0.273103448 C24.09353,0.273103448 20.0982737,5.21931034 20.0982737,10.8634483 C20.0982737,16.5075862 24.09353,21.4537931 30.3456485,21.4537931 C36.597767,21.4537931 40.5930233,16.5075862 40.5930233,10.8634483 C40.5930233,5.21931034 36.597767,0.273103448 30.3456485,0.273103448 L30.3456485,0.273103448 Z" id="Fill-3"></path>
            <path d="M50.0779446,11.1972414 L48.7970227,11.1972414 L48.7970227,3.00413793 L50.0474464,3.00413793 C51.7553422,3.00413793 53.0972604,3.73241379 53.0972604,7.10068966 C53.0972604,10.4689655 51.7858404,11.1972414 50.0779446,11.1972414 L50.0779446,11.1972414 Z M51.6028515,0.728275862 L41.0504954,0.728275862 L41.0504954,2.3062069 C42.4229116,2.82206897 42.6668967,2.94344828 42.6668967,4.24827586 L42.6668967,17.4482759 C42.6668967,18.7531034 42.4229116,18.8744828 41.0504954,19.3903448 L41.0504954,20.9986207 L50.6574092,20.9986207 L50.6574092,19.3903448 C49.2239967,18.8137931 48.7665246,18.7531034 48.7665246,17.4482759 L48.7665246,13.4731034 L51.5723534,13.4731034 C57.0620185,13.4731034 59.7763528,10.4689655 59.7763528,7.10068966 C59.7763528,3.73241379 57.1230147,0.728275862 51.6028515,0.728275862 L51.6028515,0.728275862 Z" id="Fill-4"></path>
            <path d="M132.575411,10.8027586 L131.660467,10.8027586 L131.660467,3.00413793 L132.575411,3.00413793 C134.801775,3.00413793 136.479173,3.8537931 136.479173,6.82758621 C136.479173,9.77103448 134.801775,10.8027586 132.575411,10.8027586 L132.575411,10.8027586 Z M142.42631,16.72 L139.041017,11.5917241 C141.511366,10.742069 143.158265,8.92137931 143.158265,6.52413793 C143.158265,3.39862069 140.413433,0.728275862 135.320244,0.728275862 L123.91394,0.728275862 L123.91394,2.3062069 C125.286356,2.82206897 125.530341,2.94344828 125.530341,4.24827586 L125.530341,17.4482759 C125.530341,18.7531034 125.286356,18.8744828 123.91394,19.3903448 L123.91394,20.9986207 L133.520853,20.9986207 L133.520853,19.3903448 C132.087441,18.8137931 131.629969,18.7531034 131.629969,17.4482759 L131.629969,13.0786207 L132.880393,13.0786207 L137.638102,20.9986207 L145.476124,20.9986207 L145.476124,19.3903448 C144.134206,19.0868966 143.463247,18.2372414 142.42631,16.72 L142.42631,16.72 Z" id="Fill-5"></path>
            <path d="M9.27143432,11.1972414 L8.02101061,11.1972414 L8.02101061,3.00413793 L9.27143432,3.00413793 C10.9793301,3.00413793 12.3212482,3.73241379 12.3212482,7.10068966 C12.3212482,10.4689655 10.9793301,11.1972414 9.27143432,11.1972414 L9.27143432,11.1972414 Z M10.7963413,0.728275862 L0.274483253,0.728275862 L0.274483253,2.3062069 C1.64689952,2.82206897 1.89088463,2.94344828 1.89088463,4.24827586 L1.89088463,17.4482759 C1.89088463,18.7531034 1.64689952,18.8744828 0.274483253,19.3903448 L0.274483253,20.9986207 L9.8813971,20.9986207 L9.8813971,19.3903448 C8.44798456,18.8137931 7.99051247,18.7531034 7.99051247,17.4482759 L7.99051247,13.4731034 L10.7963413,13.4731034 C16.2860063,13.4731034 19.0003407,10.4689655 19.0003407,7.10068966 C19.0003407,3.73241379 16.3165045,0.728275862 10.7963413,0.728275862 L10.7963413,0.728275862 Z" id="Fill-6"></path>
            <path d="M107.597435,12.7144828 L110.067784,5.55310345 L112.355145,12.7144828 L107.597435,12.7144828 L107.597435,12.7144828 Z M120.95562,18.0855172 L114.764498,0.728275862 L106.286015,0.728275862 L106.286015,2.42758621 C107.993911,2.42758621 108.390387,3.09517241 107.780424,4.91586207 L103.083711,18.0855172 C102.809227,18.8137931 102.504246,19.2386207 101.467309,19.3903448 L101.467309,20.9986207 L107.719428,20.9986207 L107.719428,19.3903448 C106.011532,19.3903448 105.70655,18.7227586 106.072528,17.5696552 L106.86548,15.0206897 L113.117598,15.0206897 L113.971546,17.5696552 C114.368022,18.6924138 114.032542,19.1172414 112.660126,19.3903448 L112.660126,20.9986207 L122.511025,20.9986207 L122.511025,19.3903448 C121.535085,19.0868966 121.230103,18.8137931 120.95562,18.0855172 L120.95562,18.0855172 Z" id="Fill-7"></path>
            <path d="M136.113195,23.1531034 L136.113195,24.7613793 C137.485612,25.2772414 137.729597,25.3986207 137.729597,26.7034483 L137.729597,39.9034483 C137.729597,41.2082759 137.485612,41.3296552 136.113195,41.8455172 L136.113195,43.4234483 L145.476124,43.4234483 L145.476124,41.8455172 C144.103708,41.3296552 143.859723,41.2082759 143.859723,39.9034483 L143.859723,26.7034483 C143.859723,25.3986207 144.103708,25.2772414 145.476124,24.7613793 L145.476124,23.1531034 L136.113195,23.1531034" id="Fill-8"></path>
            <path d="M46.6011567,33.1668966 C46.6011567,39.417931 50.5659148,43.8482759 57.5499887,43.8482759 C59.7763528,43.8482759 62.6431779,43.3931034 64.9915346,42.7255172 L64.9915346,36.2924138 L63.2836389,36.2924138 C62.2467021,40.1158621 61.1792672,41.5724138 58.3734384,41.5724138 C55.6896022,41.5724138 53.3412455,39.417931 53.3412455,33.257931 C53.3412455,27.097931 55.872591,24.9434483 58.4344347,24.9434483 C60.7827914,24.9434483 62.0942114,25.7931034 63.2531407,29.5558621 L64.9610365,29.5558621 L64.9610365,23.3048276 C62.6126798,23.3048276 60.3253194,22.6675862 57.5194905,22.6675862 C51.7553422,22.697931 46.6011567,26.0965517 46.6011567,33.1668966" id="Fill-10"></path>
            <path d="M146.086087,33.1668966 C146.086087,39.417931 150.050845,43.8482759 157.034919,43.8482759 C159.261283,43.8482759 162.128108,43.3931034 164.476465,42.7255172 L164.476465,36.2924138 L162.768569,36.2924138 C161.731632,40.1158621 160.664197,41.5724138 157.858369,41.5724138 C155.174532,41.5724138 152.826176,39.417931 152.826176,33.257931 C152.826176,27.097931 155.357521,24.9434483 157.919365,24.9434483 C160.267722,24.9434483 161.579142,25.7931034 162.738071,29.5558621 L164.445967,29.5558621 L164.445967,23.3048276 C162.09761,23.3048276 159.810249,22.6675862 157.004421,22.6675862 C151.240272,22.697931 146.086087,26.0965517 146.086087,33.1668966" id="Fill-11"></path>
            <path d="M45.4422274,36.3834483 L43.7343316,36.3834483 L42.94138,38.72 C42.4229116,40.2675862 41.7824507,41.1172414 40.0135586,41.1172414 L37.5432094,41.1172414 C36.0488005,41.1172414 35.3168452,40.662069 35.3168452,39.1144828 L35.3168452,34.1075862 L39.7390754,34.1075862 L39.7390754,31.8317241 L35.3168452,31.8317241 L35.3168452,25.3986207 L39.7390754,25.3986207 C41.5079675,25.3986207 41.9654395,26.3089655 42.6668967,27.7958621 L43.4598484,29.5558621 L45.1677442,29.5558621 L45.1677442,23.1227586 L27.5703178,23.1227586 L27.5703178,24.7310345 C28.9427341,25.2468966 29.1867192,25.3682759 29.1867192,26.6731034 L29.1867192,39.8731034 C29.1867192,41.177931 28.9427341,41.2993103 27.5703178,41.8151724 L27.5703178,43.3931034 L45.4422274,43.3931034 L45.4422274,36.3834483" id="Fill-13"></path>
            <path d="M6.16062412,41.8151724 C4.78820786,41.2993103 4.54422274,41.177931 4.54422274,39.8731034 L4.54422274,26.9462069 L10.1863785,43.3931034 L12.931211,43.3931034 L18.2988835,26.9462069 L18.2988835,39.8731034 C18.2988835,41.177931 18.0548984,41.2993103 16.6824821,41.8151724 L16.6824821,43.3931034 L26.0149127,43.3931034 L26.0149127,41.8151724 C24.6424965,41.2993103 24.3985114,41.177931 24.3985114,39.8731034 L24.3985114,26.6731034 C24.3985114,25.3682759 24.6424965,25.2468966 26.0149127,24.7310345 L26.0149127,23.1227586 L16.9264673,23.1227586 L13.4801775,33.8648276 L9.94239338,23.1227586 L0.274483253,23.1227586 L0.274483253,24.7310345 C1.64689952,25.2468966 1.89088463,25.3682759 1.89088463,26.6731034 L1.89088463,39.8731034 C1.89088463,41.177931 1.64689952,41.2993103 0.274483253,41.8151724 L0.274483253,43.3931034 L6.16062412,43.3931034 L6.16062412,41.8151724" id="Fill-14"></path>
            <path d="M119.522208,41.8151724 C118.088795,41.2386207 117.631323,41.177931 117.631323,39.8731034 L117.631323,28.2206897 L127.238237,43.4234483 L133.093879,43.4234483 L133.093879,26.7034483 C133.093879,25.3986207 133.337865,25.2772414 134.710281,24.7613793 L134.710281,23.1531034 L128.82414,23.1531034 L128.82414,24.7613793 C130.196556,25.2772414 130.440541,25.3986207 130.440541,26.7034483 L130.440541,36.4744828 L122.084051,23.1531034 L113.392082,23.1531034 L113.392082,24.7613793 C114.764498,25.2772414 115.008483,25.3986207 115.008483,26.7034483 L115.008483,39.9034483 C115.008483,41.2082759 114.764498,41.3296552 113.392082,41.8455172 L113.392082,43.4234483 L119.583204,43.4234483 L119.583204,41.8151724" id="Fill-15"></path>
            <path d="M67.0044118,43.3931034 L76.3368424,43.3931034 L76.3368424,41.8151724 C74.9644262,41.2993103 74.7204411,41.177931 74.7204411,39.8731034 L74.7204411,34.137931 L81.7045149,34.137931 L81.7045149,39.8731034 C81.7045149,41.177931 81.4605298,41.2993103 80.0881136,41.8151724 L80.0881136,43.3931034 L89.4205442,43.3931034 L89.4205442,41.8151724 C88.0481279,41.2993103 87.8041428,41.177931 87.8041428,39.8731034 L87.8041428,26.6731034 C87.8041428,25.3682759 88.0481279,25.2468966 89.4205442,24.7310345 L89.4205442,23.1227586 L80.0881136,23.1227586 L80.0881136,24.7310345 C81.4605298,25.2468966 81.7045149,25.3682759 81.7045149,26.6731034 L81.7045149,31.862069 L74.7204411,31.862069 L74.7204411,26.6731034 C74.7204411,25.3682759 74.9644262,25.2468966 76.3368424,24.7310345 L76.3368424,23.1227586 L67.0044118,23.1227586 L67.0044118,24.7310345 C68.3768281,25.2468966 68.6208132,25.3682759 68.6208132,26.6731034 L68.6208132,39.8731034 C68.6208132,41.177931 68.3768281,41.2993103 67.0044118,41.8151724 L67.0044118,43.3931034" id="Fill-16"></path>
            <path d="M168.197238,36.2924138 L166.489342,36.2924138 L166.489342,42.7255172 C167.983751,42.7255172 170.545594,43.8482759 174.266367,43.8482759 C179.664538,43.8482759 183.263318,40.9048276 183.263318,36.8993103 C183.263318,34.9572414 182.531363,33.5917241 181.43343,32.6206897 C180.12201,31.4372414 178.353118,30.9213793 175.943765,30.2234483 C174.754338,29.8896552 173.930888,29.6468966 173.351423,29.2524138 C172.771959,28.857931 172.375483,28.2813793 172.375483,27.3710345 C172.375483,26.0055172 173.56491,24.9131034 175.516791,24.9131034 C178.200627,24.9131034 179.878025,26.7944828 180.274501,29.0703448 L182.043393,29.0703448 L182.043393,23.2744828 C180.213505,23.2744828 177.98714,22.6372414 174.815334,22.6372414 C169.661148,22.6372414 166.336851,25.3075862 166.336851,29.3434483 C166.336851,31.0427586 166.977312,32.4082759 167.892256,33.44 C168.929193,34.5324138 170.362606,35.0786207 171.857014,35.5337931 C173.229431,35.9282759 174.205371,36.2013793 175.242308,36.6262069 C176.340241,37.0206897 177.133193,37.8096552 177.133193,38.9627586 C177.133193,40.3282759 175.943765,41.5117241 173.747899,41.5117241 C170.881074,41.5724138 168.65471,39.6910345 168.197238,36.2924138" id="Fill-18"></path>
            <path d="M97.0145808,35.1393103 L99.4849301,27.977931 L101.772291,35.1393103 L97.0145808,35.1393103 L97.0145808,35.1393103 Z M110.342268,40.48 L104.151145,23.1227586 L95.6726627,23.1227586 L95.6726627,24.822069 C97.3805585,24.822069 97.7770343,25.4896552 97.1670715,27.3103448 L92.4703581,40.4496552 C92.1958748,41.177931 91.8908934,41.6027586 90.8539567,41.7544828 L90.8539567,43.3324138 L97.1060752,43.3324138 L97.1060752,41.7544828 C95.3981794,41.7544828 95.093198,41.0868966 95.4591757,39.9337931 L96.2521273,37.3848276 L102.504246,37.3848276 L103.358194,39.9337931 C103.75467,41.0565517 103.41919,41.4813793 102.046774,41.7544828 L102.046774,43.3324138 L111.897673,43.3324138 L111.897673,41.7544828 C110.921732,41.5117241 110.647249,41.2386207 110.342268,40.48 L110.342268,40.48 Z" id="Fill-20"></path>
        </g>
    </g>
</svg>